<?xml version="1.0" standalone="no"?>
<!DOCTYPE svg PUBLIC "-//W3C//DTD SVG 20010904//EN"
 "http://www.w3.org/TR/2001/REC-SVG-20010904/DTD/svg10.dtd">
<svg version="1.0" xmlns="http://www.w3.org/2000/svg"
 width="1024.000000pt" height="1024.000000pt" viewBox="0 0 1024.000000 1024.000000"
 preserveAspectRatio="xMidYMid meet">

<g transform="translate(0.000000,1024.000000) scale(0.100000,-0.100000)"
fill="#000000" stroke="none">
<path d="M4463 10053 c15 -2 37 -2 50 0 12 2 0 4 -28 4 -27 0 -38 -2 -22 -4z"/>
<path d="M4703 10053 c9 -2 23 -2 30 0 6 3 -1 5 -18 5 -16 0 -22 -2 -12 -5z"/>
<path d="M5220 10001 c8 -5 36 -11 61 -15 74 -11 102 -16 134 -26 17 -4 53
-11 80 -14 81 -9 22 10 -120 38 -132 27 -183 32 -155 17z"/>
<path d="M3640 9960 c-21 -7 -19 -8 15 -8 22 0 51 4 65 8 21 7 19 8 -15 8 -22
0 -51 -4 -65 -8z"/>
<path d="M3560 9933 c-14 -7 -36 -13 -50 -13 -26 0 -67 -20 -42 -20 23 0 107
22 116 31 16 15 2 16 -24 2z"/>
<path d="M5600 9915 c30 -13 62 -24 71 -25 8 0 19 -4 25 -9 5 -4 70 -33 144
-64 276 -113 343 -147 545 -275 173 -110 285 -196 440 -337 264 -240 376 -360
598 -637 44 -53 65 -65 85 -44 13 12 4 28 -69 121 -201 257 -348 408 -619 637
-36 31 -95 75 -131 99 -36 24 -100 68 -142 97 -143 98 -441 261 -567 310 -30
12 -109 42 -175 68 -184 72 -328 113 -205 59z"/>
<path d="M4409 9896 c-2 -2 -47 -6 -99 -7 -52 -2 -102 -6 -112 -11 -9 -4 -31
-2 -49 4 -43 15 -213 -5 -313 -37 -39 -13 -105 -30 -146 -39 -177 -39 -297
-85 -347 -133 -29 -28 -29 -28 -36 -3 -3 10 -2 19 2 18 18 -2 31 3 31 13 0 20
-68 2 -119 -31 -26 -16 -52 -30 -58 -30 -10 0 -89 -35 -238 -105 -38 -18 -80
-36 -93 -40 -12 -3 -20 -11 -16 -16 7 -11 -13 -39 -28 -39 -6 0 -7 7 -4 16 4
11 2 15 -6 11 -23 -9 -152 -92 -222 -142 -188 -137 -239 -181 -260 -222 -12
-23 -24 -43 -27 -43 -4 0 -10 15 -13 34 -4 19 -13 39 -21 46 -34 28 -16 50
170 211 22 20 53 45 69 57 19 14 23 22 13 22 -9 0 -45 -22 -81 -50 -36 -27
-96 -73 -132 -100 -69 -53 -91 -56 -139 -24 -40 28 -36 13 7 -26 63 -55 78
-91 78 -189 0 -47 -4 -81 -10 -81 -5 0 -10 4 -10 10 0 14 -75 81 -133 118 -48
30 -192 82 -229 82 -21 0 -30 -31 -60 -192 -19 -106 -26 -128 -40 -128 -10 0
-18 8 -18 18 0 14 -2 14 -9 3 -5 -8 -37 -18 -71 -23 -74 -10 -153 -50 -187
-95 -20 -26 -28 -52 -35 -120 -12 -101 -27 -132 -29 -58 l-2 50 -8 -45 c-5
-25 -11 -67 -15 -94 -4 -27 -20 -83 -37 -125 -59 -151 -85 -232 -96 -294 -18
-104 -12 -258 15 -417 40 -231 40 -208 -2 -270 -90 -135 -124 -244 -124 -405
0 -183 48 -324 177 -520 67 -100 322 -366 458 -477 93 -75 262 -196 356 -255
220 -138 588 -287 894 -363 50 -12 124 -30 165 -40 254 -64 873 -106 1363 -93
l228 6 148 -149 c81 -82 160 -170 175 -196 24 -42 43 -112 107 -398 16 -69 2
-371 -21 -466 -28 -119 -100 -316 -161 -439 -95 -194 -150 -268 -278 -373 -53
-42 -116 -95 -141 -118 -99 -89 -387 -266 -536 -329 -67 -28 -226 -85 -239
-85 -9 0 -14 39 -19 138 -10 207 -62 390 -141 500 -19 27 -35 54 -35 59 0 6
-9 18 -20 28 -11 10 -20 24 -20 31 0 8 -11 21 -25 30 -14 9 -22 21 -18 28 3 6
2 8 -2 3 -10 -8 -45 21 -45 37 0 17 -133 140 -199 185 -92 63 -182 104 -195
91 -8 -9 -3 -18 19 -36 32 -25 24 -34 -10 -11 -91 62 -228 122 -349 153 l-131
33 60 1 c98 2 37 16 -169 39 -102 12 -230 20 -283 20 l-98 -2 113 -8 c120 -8
227 -23 264 -39 15 -6 -83 -9 -272 -8 -367 1 -367 1 -375 -12 -4 -6 -21 -8
-40 -4 -18 3 -42 1 -53 -5 -40 -21 -454 -29 -569 -11 -69 11 -175 44 -249 77
-53 24 -134 76 -134 86 0 5 -4 6 -8 3 -5 -3 -39 24 -76 60 -57 54 -66 67 -56
79 9 10 9 15 1 15 -6 0 -10 3 -9 8 4 12 -36 59 -47 55 -14 -4 -69 91 -88 152
-33 109 -40 173 -34 332 6 174 18 234 73 375 77 196 269 468 389 549 19 13 35
30 35 37 0 17 2 18 -97 -35 -112 -59 -197 -128 -300 -245 -239 -271 -276 -327
-368 -556 -55 -138 -81 -266 -96 -477 -33 -456 70 -771 340 -1043 261 -263
552 -401 931 -442 267 -29 530 -90 522 -122 -3 -12 -83 -92 -236 -238 -174
-165 -237 -296 -267 -559 -29 -259 37 -501 188 -691 201 -253 414 -429 730
-604 181 -100 544 -253 728 -306 311 -89 635 -124 1155 -124 449 0 644 20 987
104 170 42 469 127 563 162 30 11 94 33 143 50 48 17 87 35 87 39 0 23 -85 1
-202 -52 -48 -22 -148 -55 -223 -74 -75 -19 -171 -45 -213 -59 -42 -13 -102
-29 -132 -35 -30 -6 -113 -24 -185 -41 -138 -31 -297 -54 -460 -67 -123 -10
-599 -11 -675 -1 -30 4 -120 14 -199 22 -440 48 -840 167 -1256 371 -386 191
-763 511 -884 753 -68 137 -111 301 -111 430 0 41 17 14 24 -39 17 -130 116
-359 205 -479 62 -82 209 -223 346 -331 123 -98 506 -302 655 -350 19 -6 62
-21 95 -34 103 -41 366 -122 455 -140 47 -10 130 -28 185 -41 55 -12 183 -35
285 -50 176 -26 202 -27 538 -26 414 1 700 26 722 63 3 5 26 10 50 12 25 2 52
7 60 10 8 3 96 22 195 42 168 34 242 53 290 74 34 15 210 71 224 71 7 0 39 19
72 41 60 43 66 55 61 124 -3 24 -47 62 -83 70 -36 8 -73 49 -65 71 6 15 19 16
128 10 67 -4 125 -9 130 -12 4 -3 8 -25 8 -49 0 -49 16 -91 37 -99 20 -8 143
51 227 107 38 26 75 47 82 47 8 0 14 6 14 13 0 8 24 26 53 42 28 15 81 53 116
84 35 31 85 74 111 96 26 22 81 69 121 105 41 35 67 56 58 45 -9 -11 -20 -27
-24 -35 -22 -40 139 125 167 171 10 16 22 28 26 25 11 -6 104 88 97 97 -3 4
-2 5 2 2 9 -7 63 46 63 63 0 18 25 50 118 147 43 45 102 117 132 160 30 44 75
98 99 122 24 24 41 43 38 43 -5 0 -171 -55 -359 -119 -119 -41 -247 -65 -289
-55 -100 24 -271 9 -393 -33 -39 -14 -98 -27 -131 -30 l-60 -4 35 16 c71 33
218 65 345 75 l130 11 80 54 c44 30 100 68 124 84 24 17 48 31 54 31 5 0 8
-18 5 -44 l-5 -43 66 17 c36 10 91 27 121 39 75 30 252 125 322 172 67 45 198
116 248 134 25 8 35 18 36 34 1 17 -3 21 -16 18 -16 -4 -16 -1 -3 51 8 31 24
75 35 99 11 23 18 49 15 57 -4 10 -1 13 7 10 8 -3 17 10 25 37 7 23 29 71 48
108 57 103 63 116 63 123 0 4 20 49 44 100 27 57 54 137 71 208 14 63 33 127
40 143 8 15 10 27 5 27 -6 0 -10 6 -10 14 0 11 -24 13 -127 10 -118 -4 -132
-3 -173 18 -40 20 -45 27 -48 61 -4 45 11 48 83 17 58 -25 67 -25 148 0 56 17
102 44 244 143 18 12 32 30 33 41 0 13 3 16 13 8 16 -13 57 3 57 23 0 9 6 15
13 14 18 -2 31 0 45 10 11 7 11 12 1 29 -10 16 -9 34 9 103 46 176 62 298 67
514 3 116 8 273 10 350 2 77 0 194 -5 260 -5 66 -14 190 -20 275 -6 85 -15
158 -19 163 -4 4 -15 1 -25 -6 -18 -13 -18 -24 -7 -218 12 -226 13 -543 1
-689 -8 -99 -55 -446 -64 -471 -3 -8 -13 -81 -21 -164 -15 -137 -20 -183 -24
-194 -3 -11 -41 44 -40 58 1 13 2 13 6 -2 2 -9 8 -15 13 -12 4 2 1 24 -8 49
-15 40 -15 49 0 102 11 37 13 63 7 69 -19 19 -1 181 22 196 8 5 8 8 0 10 -8 3
-8 28 -1 89 6 47 12 112 15 145 3 33 15 119 25 190 11 72 19 164 19 205 -1 41
-1 174 0 295 1 121 -1 246 -5 279 l-7 59 -112 -7 -112 -7 -33 53 c-41 65 -85
113 -128 140 -41 25 -117 21 -183 -11 -52 -26 -115 -27 -151 -3 -14 9 -89 71
-165 137 -116 101 -134 121 -115 123 36 5 118 -40 222 -123 52 -42 106 -78
118 -82 13 -3 60 4 105 16 45 12 96 21 112 21 52 -1 112 -37 177 -105 l63 -67
73 6 c40 4 79 9 87 13 21 8 19 55 -9 207 -55 293 -66 359 -61 364 3 3 5 -2 5
-11 0 -30 15 -18 16 13 1 25 -1 28 -17 19 -13 -6 -19 -6 -19 1 0 5 5 10 10 10
6 0 10 5 10 11 0 6 -6 9 -14 6 -10 -4 -12 0 -9 14 3 10 9 16 14 13 5 -3 9 2 9
10 0 19 -17 30 -25 16 -9 -15 -25 -12 -25 6 0 8 5 12 10 9 6 -3 10 1 10 9 0 8
-6 13 -13 10 -9 -3 -21 27 -41 98 -15 57 -39 131 -52 166 -14 35 -40 110 -58
166 -19 56 -39 111 -45 122 -20 35 -51 125 -46 134 3 5 -1 11 -7 13 -10 4 -10
8 2 16 16 11 33 5 25 -10 -4 -5 -1 -9 4 -9 22 0 133 -261 145 -340 1 -8 14
-40 28 -70 28 -60 54 -137 94 -275 14 -49 37 -126 50 -170 13 -44 28 -115 33
-158 5 -43 11 -81 14 -84 4 -3 0 -12 -8 -20 -19 -18 -19 -25 1 -49 15 -18 15
-18 10 7 -3 14 -3 29 1 33 8 7 34 -91 54 -205 10 -54 16 -69 28 -67 18 4 18
61 1 168 -4 30 -7 78 -4 105 2 35 -4 71 -21 120 -13 39 -28 95 -34 125 -5 30
-17 69 -25 85 -9 17 -16 35 -16 40 0 16 -85 277 -98 302 -6 11 -12 44 -13 73
-2 34 -7 54 -16 57 -10 4 -11 8 -4 13 8 5 5 24 -10 63 -12 31 -25 57 -28 57
-4 0 -7 10 -8 22 -1 11 -7 24 -13 28 -6 4 -10 11 -9 16 4 16 -13 63 -27 75 -8
6 -11 15 -8 20 3 5 -5 27 -17 48 -13 25 -20 49 -17 66 l5 26 -56 -6 c-120 -14
-285 -79 -545 -216 -17 -9 -59 -53 -94 -98 -34 -44 -77 -89 -95 -98 -44 -24
-168 -21 -317 7 -63 12 -133 25 -155 29 -37 6 -38 7 -12 13 15 3 105 -2 200
-10 94 -8 189 -12 211 -8 29 6 58 26 121 86 171 160 496 313 755 354 183 29
266 38 392 39 69 1 121 5 114 9 -35 20 -157 29 -271 21 -66 -4 -228 -5 -360 0
-140 4 -333 3 -463 -3 -263 -12 -438 -12 -377 0 22 4 135 15 250 25 255 20
742 19 768 -3 10 -9 41 -12 99 -10 l83 3 -70 8 c-80 10 -243 84 -276 125 -27
35 -34 87 -21 173 16 113 57 178 167 267 116 95 137 108 236 146 108 42 163
68 167 79 2 4 10 7 18 7 8 0 14 5 14 10 0 12 -17 13 -24 1 -3 -4 -54 -11 -113
-14 -86 -5 -156 -18 -344 -66 -129 -33 -289 -78 -355 -101 -65 -22 -177 -61
-249 -85 -71 -24 -191 -67 -265 -95 -156 -60 -387 -133 -403 -127 -5 1 30 18
79 37 49 18 134 53 189 77 96 43 210 86 475 178 542 189 618 209 875 230 28 2
54 4 59 5 26 1 -14 16 -82 31 -239 51 -274 69 -286 151 -7 48 7 142 26 167 79
106 208 163 357 160 35 -1 66 2 70 8 3 5 56 10 116 12 126 3 180 20 70 21
-424 7 -639 -18 -820 -92 -38 -16 -105 -40 -148 -54 -160 -52 -488 -236 -737
-415 -180 -129 -194 -137 -241 -150 -31 -8 -61 -9 -99 -2 l-55 10 30 13 c95
45 287 155 400 230 270 179 477 294 635 352 30 11 91 33 135 49 183 67 288 91
535 123 l115 15 -130 -5 c-141 -5 -377 -42 -465 -72 -265 -90 -401 -146 -510
-212 -36 -21 -87 -48 -113 -59 -26 -11 -91 -52 -145 -89 -203 -144 -435 -268
-578 -307 -46 -13 -84 -21 -84 -19 0 2 19 13 43 25 23 12 49 27 58 35 8 7 48
27 89 44 41 17 107 51 146 75 39 25 74 45 78 45 3 0 25 13 48 29 24 16 107 68
185 115 78 48 146 93 152 100 12 14 -70 106 -306 340 -264 262 -323 317 -351
322 -15 3 -43 19 -62 36 -60 53 -131 102 -275 193 -77 48 -146 96 -154 107 -7
11 -20 17 -28 14 -8 -3 -11 -1 -8 5 4 6 -2 8 -18 4 -19 -5 -29 -1 -41 16 -10
15 -16 18 -16 9 0 -9 -3 -11 -8 -5 -9 13 -84 51 -94 47 -4 -1 -8 2 -8 7 0 5
-12 12 -26 15 -15 4 -63 24 -108 45 -196 93 -253 115 -336 131 -25 5 -56 12
-70 15 -14 3 -45 8 -70 11 -24 3 -72 14 -105 26 -67 23 -84 27 -137 35 -21 3
-38 9 -38 13 0 20 -147 30 -427 30 -165 0 -302 -2 -304 -4z m84 -203 c-7 -2
-19 -2 -25 0 -7 3 -2 5 12 5 14 0 19 -2 13 -5z m657 -53 c-6 -11 -18 -19 -28
-19 -15 1 -15 2 1 6 11 3 16 11 13 19 -3 8 1 14 10 14 12 0 12 -4 4 -20z
m-110 -20 c0 -5 14 -10 30 -10 21 0 30 -5 30 -16 0 -13 3 -14 15 -4 12 10 20
9 41 -5 14 -9 29 -13 32 -9 4 4 1 9 -5 11 -15 5 -17 33 -3 33 6 0 10 -4 10
-10 0 -5 7 -10 15 -10 8 0 15 -5 15 -11 0 -7 10 -9 26 -5 17 5 23 3 19 -4 -3
-5 -13 -10 -21 -10 -8 0 -13 -4 -9 -10 3 -5 13 -6 22 -3 33 13 1 -17 -35 -33
-115 -50 -260 -70 -326 -44 -55 20 -24 74 69 120 65 33 75 35 75 20z m-856 -6
c25 -9 8 -24 -27 -24 -18 0 -44 -7 -59 -14 -16 -8 -28 -12 -28 -8 0 7 72 46
92 50 3 1 13 -1 22 -4z m1116 -44 c-8 -5 -17 -7 -19 -4 -3 3 1 9 9 14 8 5 17
7 19 4 3 -3 -1 -9 -9 -14z m-1275 -20 c4 -6 -5 -10 -20 -10 -15 0 -24 4 -20
10 3 6 12 10 20 10 8 0 17 -4 20 -10z m-52 -12 c5 -16 -244 -139 -257 -127
-14 12 12 31 103 77 51 26 91 40 102 37 12 -4 21 -1 25 9 7 19 21 21 27 4z
m-275 -133 c-2 -5 -14 -9 -28 -7 -17 2 -21 0 -12 -6 10 -7 1 -17 -35 -38 -63
-38 -83 -46 -83 -33 0 6 -10 8 -22 4 -22 -6 -22 -6 -4 10 11 8 28 13 37 10 9
-3 23 0 31 8 7 7 20 11 28 9 13 -5 13 -3 0 13 -14 17 -13 17 9 10 17 -5 22 -4
16 5 -4 7 -1 16 6 21 18 12 60 7 57 -6z m1084 -52 c69 -20 134 -54 178 -92 41
-36 32 -37 -70 -12 -41 10 -97 22 -125 25 -27 4 -62 9 -77 12 -17 3 -28 1 -28
-5 0 -6 15 -11 33 -12 l32 -1 -30 -8 c-16 -4 -57 -17 -90 -29 -224 -83 -264
-92 -283 -60 -12 18 -11 18 8 7 18 -11 23 -10 33 3 7 9 28 19 48 23 21 3 43
14 50 23 12 14 11 15 -6 10 -11 -4 -26 -3 -34 2 -9 6 -5 10 16 13 31 4 64 -16
40 -25 -7 -2 -8 -8 -3 -13 5 -5 11 -4 13 4 3 7 22 12 44 12 22 0 39 5 39 11 0
8 -13 9 -39 5 -23 -3 -42 -2 -46 4 -3 5 3 10 14 10 12 0 21 5 21 11 0 13 -26
9 -142 -22 -112 -30 -221 -107 -395 -278 -57 -56 -84 -73 -82 -53 5 49 81 162
160 238 132 126 280 194 469 218 59 7 197 -4 252 -21z m-1212 7 c0 -5 -5 -10
-11 -10 -5 0 -7 5 -4 10 3 6 8 10 11 10 2 0 4 -4 4 -10z m-65 -76 c-16 -13
-34 -24 -38 -24 -5 0 -28 -14 -53 -31 -66 -45 -214 -121 -214 -110 0 6 17 20
38 31 20 12 71 43 112 71 41 27 87 54 102 60 16 6 26 14 23 18 -2 5 10 8 28 9
l32 1 -30 -25z m-503 -76 c-7 -7 -12 -8 -12 -2 0 14 12 26 19 19 2 -3 -1 -11
-7 -17z m1288 -34 c0 -8 -5 -12 -10 -9 -6 4 -8 11 -5 16 9 14 15 11 15 -7z
m-1100 -69 c0 -7 -9 -17 -20 -20 -11 -4 -34 -18 -50 -32 -17 -13 -30 -20 -30
-15 0 5 10 17 23 26 20 15 20 17 2 11 -17 -4 -16 -2 5 15 14 11 31 18 38 15 6
-2 12 3 12 11 0 8 5 12 10 9 6 -3 10 -12 10 -20z m-214 -60 c1 -8 -2 -17 -7
-21 -5 -3 -9 7 -9 22 0 27 12 26 16 -1z m99 5 c-10 -11 -21 -18 -23 -15 -3 3
3 12 14 20 27 20 30 18 9 -5z m509 -126 c9 -23 -42 -111 -83 -143 -38 -30 -94
-61 -109 -61 -5 0 -15 13 -22 30 -10 25 -9 35 7 67 22 43 75 83 109 83 14 0
24 6 24 14 0 26 65 34 74 10z m-844 -148 c-14 -6 -31 -16 -38 -23 -18 -18 -35
-16 -28 2 4 12 0 14 -18 9 -14 -3 -27 -1 -31 7 -5 7 -4 10 1 6 5 -3 19 0 31 7
13 6 42 10 65 7 41 -4 42 -4 18 -15z m-1100 -153 c-81 -66 -159 -153 -201
-225 -43 -73 -54 -111 -90 -313 -42 -237 -4 -430 122 -616 46 -68 76 -98 127
-126 42 -23 41 -49 -2 -99 l-33 -38 -37 28 c-81 61 -143 161 -201 320 -55 153
-68 240 -62 406 10 249 63 408 183 544 77 89 108 115 164 139 66 29 79 20 30
-20z m1688 -13 c2 -30 -4 -42 -41 -81 -47 -49 -94 -70 -108 -47 -25 38 10 125
60 153 14 8 40 14 56 12 27 -2 30 -6 33 -37z m2876 6 c31 -13 76 -52 76 -66 0
-13 -80 -30 -107 -24 -32 8 -65 33 -58 44 9 15 -6 39 -21 33 -14 -5 -19 8 -7
20 11 12 82 8 117 -7z m-1516 -96 c170 -96 133 -372 -62 -461 -27 -12 -64 -19
-111 -19 -59 0 -78 5 -122 30 -57 33 -98 80 -119 137 -19 53 -17 84 7 148 33
88 105 158 190 184 57 17 170 7 217 -19z m-2914 -14 c48 -20 71 -73 70 -163
-1 -89 -24 -152 -69 -192 -42 -36 -81 -45 -134 -31 -51 13 -86 62 -102 141
-21 99 16 173 115 229 58 34 73 36 120 16z m3736 -187 c94 -159 133 -398 96
-591 -15 -80 -59 -195 -101 -271 -63 -111 -230 -259 -375 -332 -122 -61 -187
-81 -328 -99 -234 -30 -421 7 -613 121 -128 76 -206 179 -266 352 -23 65 -27
92 -26 186 0 61 6 130 13 155 l13 45 13 -45 c7 -25 20 -85 29 -135 37 -211
174 -384 390 -491 136 -67 232 -88 380 -81 220 9 392 88 533 242 104 114 158
215 193 363 18 75 21 108 16 242 -6 176 -24 248 -94 383 -38 72 -46 98 -18 61
10 -15 13 -13 19 17 l7 34 40 -45 c22 -25 58 -75 79 -111z m2555 91 c3 -5 1
-10 -4 -10 -6 0 -11 5 -11 10 0 6 2 10 4 10 3 0 8 -4 11 -10z m36 -60 c5 0 9
9 9 20 0 11 5 20 10 20 6 0 10 -6 10 -14 0 -14 16 -16 35 -4 6 4 18 -14 29
-43 25 -72 78 -121 146 -136 31 -7 63 -13 73 -13 26 0 20 -17 -8 -22 -14 -3
-25 -1 -25 4 0 16 -143 -11 -295 -56 -38 -11 -76 -19 -84 -17 -9 1 -12 -3 -8
-13 6 -15 -5 -20 -40 -19 -7 1 -13 -3 -13 -7 0 -8 -97 -40 -117 -40 -4 1 3 8
17 16 l25 15 -28 -4 c-20 -3 -27 -1 -23 9 3 8 0 11 -10 7 -10 -4 -14 -13 -10
-27 5 -20 5 -21 -9 -2 -8 11 -15 23 -15 28 0 4 -7 5 -15 2 -17 -7 -19 4 -6 24
7 11 9 11 14 -2 10 -26 30 -19 23 8 -3 14 -2 28 4 31 15 9 12 25 -6 25 -8 0
-12 5 -9 10 5 8 11 7 21 -1 8 -6 18 -9 22 -5 4 4 -1 12 -11 17 -9 6 -17 15
-17 21 0 7 6 6 15 -2 20 -17 32 -4 18 18 -8 13 -7 21 4 31 12 11 14 11 11 -2
-2 -9 2 -16 7 -16 6 0 9 7 7 15 -2 8 4 14 12 14 8 0 20 8 25 18 10 16 10 16
11 0 0 -10 4 -18 9 -18 15 0 23 18 11 25 -5 3 -10 13 -10 22 0 11 5 9 20 -8
12 -15 19 -19 20 -10 0 10 3 11 13 2 8 -6 17 -8 20 -4 4 3 7 0 7 -7 0 -7 3
-10 6 -7 4 4 1 13 -6 22 -17 21 -1 19 23 -2 19 -17 19 -17 15 2 -3 16 -11 20
-41 20 -22 0 -37 5 -37 12 0 7 7 10 15 7 8 -4 15 -1 15 5 0 6 7 8 16 4 9 -3
20 0 25 8 7 11 9 9 9 -7 0 -26 25 -50 35 -34 3 5 -1 10 -9 10 -9 0 -16 5 -16
10 0 6 4 10 10 10 5 0 7 7 4 15 -8 19 1 19 30 0 19 -13 25 -13 34 -2 9 11 7
13 -11 13 -17 -1 -22 5 -23 24 -1 22 0 22 3 3 2 -13 9 -23 14 -23z m306 -306
c-3 -3 -12 -4 -19 -1 -8 3 -5 6 6 6 11 1 17 -2 13 -5z m-6483 -171 c-4 -116
-32 -408 -45 -456 -6 -22 -8 -41 -6 -43 2 -3 38 2 78 10 180 35 255 43 500 51
319 10 557 -40 854 -180 17 -8 76 -34 133 -59 56 -24 163 -79 238 -122 165
-94 265 -124 409 -124 57 0 145 -10 230 -26 111 -21 161 -25 254 -22 111 3
116 4 113 24 -3 23 -22 20 223 40 39 3 97 15 130 26 72 25 259 117 334 165 61
39 297 263 292 278 -1 5 1 7 5 3 4 -4 12 -4 18 1 19 15 165 41 231 41 131 0
267 -42 370 -113 70 -49 144 -120 163 -157 10 -22 22 -37 25 -34 3 3 8 -38 12
-92 8 -104 -5 -194 -34 -227 -14 -17 -14 -21 0 -46 14 -24 14 -30 2 -47 -14
-18 -15 -18 -8 4 10 33 -11 27 -24 -8 -5 -16 -15 -30 -22 -30 -8 0 -9 -11 -4
-36 5 -31 4 -36 -10 -30 -21 8 -54 -22 -36 -34 17 -10 -29 -60 -55 -60 -13 0
-15 -3 -7 -11 9 -9 5 -18 -12 -37 -13 -14 -22 -29 -19 -33 2 -4 -23 -28 -56
-54 -33 -25 -60 -50 -60 -56 0 -5 -7 -9 -17 -9 -9 0 -29 -14 -44 -31 -21 -24
-32 -29 -50 -24 -20 7 -21 5 -16 -23 7 -35 -1 -46 -20 -31 -10 9 -18 8 -31 -5
-10 -9 -22 -13 -25 -9 -4 3 -7 -1 -7 -10 0 -18 -37 -43 -57 -39 -8 2 -10 -3
-7 -13 8 -20 -12 -20 -24 1 -8 14 -10 14 -21 0 -11 -14 -11 -16 5 -17 26 -1
-34 -28 -63 -29 -13 0 -23 -5 -23 -11 0 -12 -69 -44 -87 -40 -8 1 -10 -4 -7
-13 6 -16 -12 -23 -76 -30 -19 -2 -38 -4 -42 -5 -5 0 -8 -8 -8 -16 0 -17 -16
-20 -25 -5 -3 5 -17 9 -30 8 -20 -2 -24 -7 -20 -23 3 -11 2 -15 -1 -8 -4 8
-15 8 -41 1 -19 -5 -44 -8 -54 -5 -10 3 -20 -1 -23 -9 -3 -8 -12 -14 -21 -14
-8 0 -15 -5 -15 -11 0 -6 -8 -8 -17 -5 -10 3 -31 -1 -46 -9 -15 -8 -34 -12
-41 -9 -7 3 -18 -2 -25 -10 -7 -8 -19 -12 -26 -10 -7 3 -24 0 -36 -7 -13 -6
-36 -12 -51 -11 -15 0 -28 -3 -28 -8 0 -5 -33 -8 -74 -8 -40 0 -83 -5 -95 -12
-12 -6 -31 -8 -42 -5 -11 4 -25 2 -32 -3 -7 -6 -39 -12 -72 -15 -33 -2 -68 -8
-77 -12 -10 -4 -69 -5 -133 -3 -87 2 -115 0 -115 -9 0 -7 -7 -13 -15 -13 -8 0
-15 3 -15 8 0 4 -18 7 -40 7 -22 0 -40 -3 -40 -7 0 -4 -24 -6 -52 -5 -29 0
-64 -3 -78 -7 -18 -5 -21 -5 -10 3 8 5 11 13 7 17 -3 4 -12 2 -19 -4 -7 -6
-40 -13 -73 -15 -33 -3 -79 -9 -102 -12 -30 -5 -43 -4 -43 4 0 15 -37 14 -42
0 -5 -16 -118 -20 -124 -5 -3 8 -20 11 -47 9 -70 -6 -207 0 -280 12 -16 3 -37
0 -48 -6 -15 -7 -21 -6 -25 4 -3 9 -13 13 -25 10 -10 -3 -19 -1 -19 4 0 5 -9
9 -20 9 -11 0 -20 -4 -20 -9 0 -5 -7 -4 -15 3 -8 6 -27 13 -42 15 -56 5 -179
27 -201 36 -13 5 -40 9 -60 9 -21 0 -42 4 -47 9 -6 6 -37 12 -69 15 -33 3 -67
13 -76 21 -12 11 -19 12 -28 3 -9 -9 -12 -9 -12 -1 0 6 -13 14 -30 18 -16 4
-32 11 -35 16 -4 5 -17 9 -31 9 -14 0 -27 7 -30 15 -6 14 -8 13 -20 -2 -8 -11
-13 -13 -14 -5 0 6 -9 12 -20 12 -11 0 -20 5 -20 11 0 7 -10 9 -25 5 -15 -4
-25 -2 -25 4 0 7 -8 9 -18 5 -11 -3 -32 1 -48 10 -16 8 -42 15 -59 16 -17 1
-22 3 -12 6 24 6 21 18 -4 20 -12 1 -37 9 -56 18 -19 9 -41 14 -49 11 -9 -3
-25 -1 -37 6 -12 7 -30 11 -41 9 -11 -1 -16 2 -12 8 6 10 -15 16 -29 9 -2 -2
-11 6 -19 17 -12 15 -16 16 -16 5 -1 -10 -4 -9 -10 5 -8 18 -9 18 -9 2 -1 -27
-18 -12 -24 23 -5 20 -15 34 -32 40 -44 17 -30 45 23 43 6 -1 12 6 12 13 0 13
34 32 65 38 6 1 15 5 21 8 25 16 165 38 239 38 159 -1 290 -29 585 -126 236
-77 284 -88 470 -110 245 -28 542 -7 795 57 293 75 463 133 675 232 78 36 222
129 293 188 57 48 80 60 145 78 92 25 197 40 272 41 60 0 77 7 80 30 5 31 -1
39 -30 45 -17 4 -45 14 -62 23 -37 18 -93 17 -248 -3 -164 -22 -190 -24 -265
-26 -38 -1 -83 -4 -98 -7 -30 -5 -50 -32 -41 -55 8 -21 72 -47 121 -50 24 -1
43 -5 43 -9 0 -11 -101 -93 -160 -130 -30 -19 -91 -49 -135 -67 -44 -18 -93
-39 -110 -46 -16 -7 -64 -20 -105 -29 -66 -15 -194 -51 -316 -91 -55 -18 -284
-60 -410 -75 -109 -13 -484 -10 -484 3 0 5 -4 6 -9 3 -16 -11 -210 34 -276 64
-38 17 -73 29 -99 35 -6 1 -24 7 -41 14 -16 7 -59 21 -95 33 -36 11 -70 25
-76 30 -7 5 -29 11 -50 13 -22 2 -39 4 -39 5 0 1 -11 3 -25 5 -14 2 -52 11
-85 20 -67 18 -361 38 -415 28 -19 -3 -73 -21 -120 -41 -92 -38 -196 -66 -211
-56 -5 3 -9 0 -9 -5 0 -7 27 -11 67 -11 61 0 66 -1 47 -14 -31 -22 -119 -35
-167 -24 -48 11 -125 64 -165 116 -59 74 -110 203 -113 282 -1 39 -2 41 -8 15
-4 -19 -13 -31 -23 -31 -10 -1 -15 2 -12 7 3 5 0 9 -5 9 -6 0 -11 -6 -12 -12
0 -10 -2 -10 -6 0 -7 19 -41 14 -55 -8 -7 -11 -16 -20 -21 -20 -4 0 -5 6 0 13
11 17 13 37 4 37 -5 0 -12 -10 -18 -22 -6 -15 -12 -18 -17 -10 -4 7 -2 12 3
12 6 0 11 5 11 11 0 6 -6 9 -12 6 -16 -5 -38 45 -38 84 0 15 -5 31 -11 35 -11
7 -9 -39 5 -96 14 -60 93 -197 165 -287 84 -106 115 -136 233 -228 43 -33 78
-65 78 -72 0 -21 161 -153 290 -238 303 -199 598 -327 955 -414 115 -28 376
-73 390 -67 7 2 16 2 19 -2 7 -6 7 -6 126 -16 47 -4 109 -9 138 -11 29 -3 57
-7 60 -9 29 -18 529 -24 785 -11 56 3 110 6 120 6 9 0 17 5 17 11 0 6 10 8 25
4 14 -4 71 1 128 10 56 8 122 18 145 20 24 2 71 11 105 20 34 9 69 18 77 20
189 45 322 85 383 116 20 10 68 30 106 43 37 14 101 43 141 65 40 22 79 40 86
40 8 0 14 5 14 10 0 6 7 10 15 10 9 0 21 5 28 10 7 6 51 34 99 63 145 87 237
159 365 289 145 147 173 180 225 276 22 39 44 72 49 72 5 0 9 9 9 20 0 28 20
25 21 -2 0 -20 2 -19 11 7 6 17 14 32 18 35 3 3 10 14 13 24 4 10 10 16 13 13
7 -6 -66 -197 -102 -268 -48 -97 -233 -305 -377 -426 -234 -198 -560 -362
-948 -478 -334 -100 -886 -174 -1186 -160 -202 10 -485 35 -563 50 -41 8 -154
28 -250 45 -465 82 -857 229 -1225 458 -129 81 -412 312 -537 439 -103 105
-227 272 -282 381 -89 176 -105 424 -37 597 30 78 87 175 102 175 21 0 40 -61
33 -110 l-7 -50 83 -85 c46 -47 89 -85 96 -85 9 0 10 -8 3 -32 -13 -45 -4 -46
14 -1 16 41 134 200 202 274 24 25 50 59 58 76 22 41 51 160 86 348 26 144 44
215 54 215 2 0 2 -39 1 -87z m6225 59 c-30 -24 -99 -36 -99 -18 0 8 13 12 36
11 19 0 40 5 46 12 6 7 17 13 26 13 10 0 7 -6 -9 -18z m-99 -43 c0 -5 -4 -9
-10 -9 -5 0 -10 7 -10 16 0 8 5 12 10 9 6 -3 10 -10 10 -16z m130 11 c0 -5 8
-7 18 -4 14 4 14 3 -2 -8 -26 -18 -86 -75 -86 -82 0 -10 -39 -46 -50 -46 -5 0
-7 -7 -4 -15 4 -8 2 -15 -4 -15 -6 0 -13 6 -15 13 -4 8 -6 7 -6 -3 -1 -9 4
-21 10 -27 7 -7 7 -34 -2 -92 -16 -113 -8 -165 39 -254 5 -11 -81 -6 -135 8
-24 6 -40 15 -36 20 4 5 1 4 -7 -2 -12 -9 -22 -6 -45 13 -16 13 -24 24 -17 24
22 0 13 28 -19 54 -18 16 -25 26 -16 26 8 0 14 7 13 16 0 9 5 19 13 22 9 3 11
0 6 -8 -5 -9 -4 -11 3 -6 15 9 16 36 2 36 -5 0 -10 5 -10 11 0 5 4 7 10 4 5
-3 28 13 49 35 22 23 44 39 50 36 5 -4 12 -2 16 4 6 10 -7 14 -31 11 -17 -2
-27 31 -13 43 9 8 10 8 5 -1 -9 -16 10 -26 35 -18 12 4 18 12 15 21 -3 7 4 18
15 24 11 6 17 15 14 19 -7 13 52 74 64 66 6 -3 16 3 23 15 7 11 23 20 36 20
13 0 20 4 17 10 -10 17 -44 11 -57 -10 -18 -28 -28 -25 -15 5 11 22 30 30 64
26 6 -1 14 3 18 9 8 13 35 13 35 0z m-3188 -27 c26 -23 23 -75 -7 -107 -29
-31 -53 -33 -89 -5 -32 25 -34 66 -5 103 24 31 72 35 101 9z m3018 13 c0 -3
-4 -8 -10 -11 -5 -3 -10 -1 -10 4 0 6 5 11 10 11 6 0 10 -2 10 -4z m-2711
-143 c28 -25 31 -33 31 -85 0 -32 -4 -66 -9 -76 -14 -26 -23 -55 -25 -77 -3
-39 -88 -136 -159 -181 -26 -16 -47 -32 -47 -36 0 -5 -5 -8 -12 -8 -7 0 -25
-12 -41 -27 -17 -16 -27 -22 -23 -15 4 6 5 12 3 12 -7 0 -79 -30 -127 -53 -66
-32 -213 -31 -334 2 -74 21 -97 32 -128 63 -24 24 -38 47 -38 64 0 14 -4 23
-10 19 -6 -3 -10 4 -10 16 0 12 -11 42 -25 65 -26 44 -28 59 -10 80 7 8 24 3
63 -22 29 -19 56 -34 62 -34 5 0 12 -9 15 -20 4 -11 10 -18 14 -16 4 3 19 -1
34 -9 45 -23 137 -39 137 -24 0 5 8 9 18 9 10 0 33 11 52 25 45 33 78 32 117
-5 28 -26 36 -29 54 -20 11 7 27 9 35 6 12 -5 14 1 8 29 -4 24 -3 35 6 35 7 0
42 29 79 65 47 45 72 78 80 105 6 21 16 42 21 45 5 3 3 -12 -5 -34 -8 -22 -10
-43 -5 -46 5 -3 12 5 16 17 4 13 10 25 13 28 4 3 16 28 27 55 19 46 49 74 80
75 7 0 26 -12 43 -27z m-3704 -152 c-2 -11 2 -27 10 -37 10 -14 16 -16 27 -6
11 9 22 6 51 -15 43 -30 45 -47 16 -103 -23 -43 -45 -55 -33 -17 3 12 3 19 -1
14 -7 -6 -40 10 -70 35 -5 5 -17 14 -26 21 -10 7 -20 22 -24 35 -5 18 -2 22
14 22 12 0 21 -7 21 -15 0 -8 4 -15 9 -15 5 0 5 17 0 41 -5 22 -7 44 -4 50 10
15 14 10 10 -10z m6207 -43 c-8 -8 -9 -4 -5 13 4 13 8 18 11 10 2 -7 -1 -18
-6 -23z m-27 -37 c-3 -6 -11 -11 -16 -11 -5 0 -4 6 3 14 14 16 24 13 13 -3z
m-10 -31 c3 -5 1 -10 -4 -10 -6 0 -11 5 -11 10 0 6 2 10 4 10 3 0 8 -4 11 -10z
m-82 -24 c4 -10 1 -13 -8 -9 -8 3 -12 9 -9 14 7 12 11 11 17 -5z m67 -14 c0
-15 -2 -15 -10 -2 -13 20 -13 33 0 25 6 -3 10 -14 10 -23z m87 13 c2 -6 -5
-11 -15 -12 -10 -1 -19 5 -19 13 0 16 28 15 34 -1z m-47 -3 c0 -5 -6 -17 -14
-27 -13 -18 -14 -18 -9 8 5 24 23 39 23 19z m-6173 -18 c-3 -3 -12 -4 -19 -1
-8 3 -5 6 6 6 11 1 17 -2 13 -5z m6093 -14 c0 -5 -4 -10 -10 -10 -5 0 -10 5
-10 10 0 6 5 10 10 10 6 0 10 -4 10 -10z m97 -22 c-3 -7 -5 -2 -5 12 0 14 2
19 5 13 2 -7 2 -19 0 -25z m160 -204 c-3 -3 -12 -4 -19 -1 -8 3 -5 6 6 6 11 1
17 -2 13 -5z m113 -84 c0 -5 -5 -10 -11 -10 -5 0 -7 -6 -3 -12 5 -9 2 -9 -9 1
-23 18 -21 31 3 31 11 0 20 -4 20 -10z m-3555 -160 c3 -5 1 -10 -4 -10 -6 0
-11 5 -11 10 0 6 2 10 4 10 3 0 8 -4 11 -10z m63 -4 c-7 -8 -15 -12 -17 -11
-5 6 10 25 20 25 5 0 4 -6 -3 -14z m52 0 c0 -11 -19 -15 -25 -6 -3 5 1 10 9
10 9 0 16 -2 16 -4z m1340 -710 c0 -15 -18 -31 -26 -23 -7 7 7 37 17 37 5 0 9
-6 9 -14z m-2450 -27 c11 -7 -1 -9 -43 -6 -32 3 -61 8 -64 11 -11 11 92 6 107
-5z m133 -6 c-7 -2 -21 -2 -30 0 -10 3 -4 5 12 5 17 0 24 -2 18 -5z m-1663
-19 c0 -8 -4 -12 -10 -9 -5 3 -10 10 -10 16 0 5 5 9 10 9 6 0 10 -7 10 -16z
m5064 -116 c-6 -31 -5 -32 8 -14 14 17 15 18 21 2 4 -10 5 -21 2 -26 -3 -4 3
-7 13 -6 14 1 17 -6 15 -39 -3 -53 -23 -134 -34 -141 -5 -3 -9 -15 -9 -28 0
-12 -4 -26 -8 -31 -5 -6 -14 -30 -21 -55 -15 -54 -76 -210 -104 -265 -27 -55
-118 -185 -128 -185 -5 0 -9 7 -9 15 0 8 -4 15 -9 15 -9 0 -8 95 2 135 2 11 8
38 11 59 7 34 47 133 77 188 5 10 9 25 9 33 0 8 4 23 9 33 5 9 19 53 31 97 21
80 47 144 64 156 5 4 5 12 1 19 -4 7 1 13 14 17 12 3 21 13 21 22 0 19 8 31
21 31 5 0 6 -15 3 -32z m56 -10 c0 -4 -4 -8 -10 -8 -5 0 -10 4 -10 9 0 5 -3
18 -6 28 -5 16 -4 16 10 -1 9 -11 16 -23 16 -28z m68 -209 c29 -46 136 -403
147 -490 5 -39 4 -41 -6 -19 -10 21 -13 22 -16 7 -3 -10 1 -25 7 -33 11 -12 9
-14 -11 -12 -20 3 -23 -1 -21 -20 2 -12 -4 -29 -12 -38 -9 -8 -16 -26 -16 -39
0 -13 -5 -27 -10 -30 -6 -4 -8 -11 -4 -16 7 -12 -23 -134 -43 -174 -9 -16 -22
-38 -31 -48 -8 -9 -20 -26 -26 -37 -6 -10 -27 -46 -47 -78 -35 -57 -36 -59
-12 -54 33 6 122 101 156 167 8 17 26 42 40 55 13 14 27 39 31 55 5 22 4 26
-4 15 -8 -12 -10 -11 -10 6 0 12 6 24 13 27 9 3 14 24 16 53 1 27 5 52 10 57
5 5 6 29 3 55 -7 65 10 44 25 -31 39 -194 58 -396 33 -357 -8 12 -10 9 -10
-12 0 -30 19 -49 22 -21 3 44 16 -163 16 -267 0 -106 -1 -112 -12 -69 -9 39
-13 44 -24 33 -9 -10 -10 -14 -1 -14 9 0 10 -32 5 -131 -4 -86 -3 -128 4 -124
5 3 11 25 12 48 l1 42 4 -39 c3 -28 -2 -53 -17 -80 -12 -23 -14 -32 -6 -22 16
19 16 19 16 -6 0 -36 -10 -59 -22 -52 -6 4 -5 -2 1 -14 15 -28 15 -27 -23 -69
-30 -34 -42 -62 -50 -117 -1 -10 -13 -30 -25 -44 -13 -14 -24 -36 -25 -48 -5
-49 -138 -153 -246 -193 -152 -55 -379 -72 -657 -47 -234 20 -320 33 -403 58
-121 37 -350 171 -350 205 0 8 7 16 15 19 23 9 18 23 -7 18 -17 -3 -16 -1 6
10 29 13 44 35 45 65 1 7 -5 11 -13 8 -10 -4 -13 -1 -9 8 3 8 10 12 16 8 5 -3
17 3 25 13 14 19 14 18 7 -1 -4 -11 -11 -32 -15 -46 -8 -26 -8 -26 21 -12 30
15 40 27 14 17 -19 -8 -19 6 1 34 8 12 12 22 7 22 -4 0 -1 4 7 10 9 5 19 5 26
-1 17 -14 29 5 33 49 1 15 3 15 13 -2 8 -14 8 -24 -1 -38 -10 -17 -10 -17 9
-6 13 8 19 20 16 31 -4 15 -2 16 10 6 7 -6 11 -16 8 -21 -3 -5 3 -4 14 3 12 7
20 15 19 18 0 4 3 17 7 31 8 24 9 24 17 5 6 -15 8 -16 8 -4 1 25 48 30 231 26
243 -6 488 21 628 69 83 29 303 129 312 143 3 4 20 16 39 25 39 21 131 111
148 146 21 44 20 63 -4 65 -22 2 -28 -9 -24 -42 1 -7 -7 -13 -19 -13 -11 0
-20 -4 -20 -9 0 -22 -82 -84 -184 -139 -106 -57 -324 -136 -441 -161 -46 -9
-177 -21 -285 -26 -46 -2 -175 9 -241 20 -30 5 -36 10 -32 25 3 12 12 17 26
14 16 -3 18 -1 9 8 -17 17 -15 23 15 37 17 8 28 9 32 2 19 -30 90 45 82 86 -1
7 4 10 12 8 7 -3 24 6 37 20 19 20 22 28 11 34 -8 5 -9 11 -3 15 5 3 12 -1 16
-9 3 -8 11 -15 18 -14 10 0 10 2 1 6 -18 7 -16 23 3 23 14 0 15 2 3 17 -12 14
-12 16 1 11 9 -3 29 5 45 19 17 14 22 23 13 20 -12 -4 -15 -2 -11 9 3 8 11 13
18 10 8 -3 18 8 26 27 18 45 84 129 149 190 216 203 267 264 378 449 120 202
187 360 232 553 7 28 14 56 16 63 5 19 28 14 42 -9z m-2234 -628 c11 -1 17 -4
13 -7 -22 -22 321 -342 442 -412 78 -45 69 -47 -33 -6 -123 50 -204 110 -361
270 -145 148 -154 163 -100 158 11 -1 29 -3 39 -3z m1728 -133 c-7 -7 -12 -8
-12 -2 0 14 12 26 19 19 2 -3 -1 -11 -7 -17z m-1387 -414 c29 -160 140 -566
168 -619 6 -11 12 -24 12 -30 1 -5 7 -23 13 -39 7 -16 11 -30 9 -32 -6 -6 -47
9 -47 17 0 5 -9 9 -21 9 -19 0 -19 -1 -4 -27 24 -40 94 -115 140 -150 55 -40
134 -83 237 -127 105 -44 155 -59 273 -81 269 -50 325 -55 556 -55 314 0 411
19 540 111 15 11 34 16 47 12 25 -6 27 -13 10 -32 -11 -11 -10 -13 5 -8 18 7
21 -1 11 -27 -5 -13 -9 -14 -20 -5 -11 9 -15 8 -20 -5 -4 -10 -18 -16 -38 -17
-17 0 -25 -3 -18 -6 6 -2 12 -18 12 -34 0 -22 -6 -30 -25 -35 -29 -7 -32 -19
-7 -33 15 -9 15 -10 -5 -11 -18 0 -23 -6 -23 -25 0 -14 -7 -28 -15 -31 -8 -4
-15 -12 -15 -19 0 -7 -7 -15 -15 -19 -8 -3 -15 -15 -15 -26 0 -11 -5 -20 -10
-20 -7 0 -8 -13 -4 -35 4 -21 2 -35 -4 -35 -5 0 -13 -15 -16 -34 -4 -22 -14
-37 -26 -41 -13 -4 -20 -15 -20 -31 0 -14 -9 -34 -20 -46 -11 -12 -20 -28 -20
-35 0 -7 -8 -13 -17 -13 -13 0 -14 -3 -6 -11 14 -14 67 -3 58 11 -3 6 1 10 9
10 22 0 20 -16 -5 -34 -12 -8 -18 -19 -14 -25 3 -6 2 -11 -4 -11 -5 0 -13 5
-16 10 -3 6 -12 10 -18 9 -9 0 -9 -2 1 -6 43 -17 -43 -57 -158 -73 -138 -19
-437 12 -598 62 -71 22 -131 21 -78 0 16 -7 61 -28 100 -46 98 -47 180 -71
336 -96 97 -16 158 -21 222 -18 48 3 85 2 83 -2 -3 -5 -1 -10 5 -12 6 -1 -32
-2 -82 -1 l-93 1 77 -7 c43 -4 80 -10 84 -14 4 -4 2 -7 -4 -7 -7 0 -12 -7 -12
-16 0 -9 -6 -14 -12 -11 -13 4 -50 -13 -101 -47 -20 -14 -26 -24 -21 -38 5
-17 2 -19 -18 -14 -12 3 -17 3 -10 0 6 -3 12 -14 12 -25 0 -16 -3 -18 -19 -9
-23 12 -34 0 -25 -25 5 -11 0 -18 -15 -22 -12 -3 -20 -11 -18 -17 3 -6 -2 -17
-9 -24 -8 -7 -14 -8 -14 -2 0 5 -7 10 -16 10 -11 0 -15 -6 -11 -20 5 -20 -15
-45 -26 -33 -11 11 -37 -19 -37 -42 0 -18 -4 -22 -19 -18 -11 3 -27 -4 -37
-15 -11 -10 -27 -22 -37 -25 -13 -5 -17 -15 -14 -42 2 -19 0 -35 -4 -35 -5 0
-9 5 -9 10 0 6 -10 10 -22 10 -19 0 -20 -2 -8 -10 27 -17 -24 -12 -130 14
-101 25 -335 109 -424 152 -28 13 -53 24 -57 24 -4 0 -26 18 -49 40 -23 22
-45 40 -50 40 -4 0 -71 62 -147 138 -149 146 -211 229 -286 384 -23 48 -46 87
-50 88 -14 0 0 -82 23 -140 26 -67 85 -175 118 -215 44 -56 273 -283 310 -308
193 -130 406 -234 577 -282 98 -27 117 -36 66 -30 -43 6 -44 5 -28 -13 16 -17
16 -20 -8 -40 -14 -13 -25 -33 -25 -47 0 -22 -4 -25 -35 -25 -21 0 -38 -6 -41
-14 -7 -18 -83 -73 -108 -77 -11 -2 -27 -17 -36 -34 -16 -29 -16 -30 3 -41 19
-11 18 -12 -14 -20 -19 -4 -37 -7 -41 -6 -4 1 -10 -13 -13 -32 -6 -28 -10 -33
-28 -28 -12 3 -26 10 -30 16 -4 6 -5 -1 -1 -16 5 -25 3 -28 -20 -28 -14 0 -26
-4 -26 -10 0 -5 -7 -7 -15 -4 -8 3 -29 -9 -50 -29 l-37 -36 29 -4 c21 -3 18
-4 -13 -6 -25 0 -47 -8 -55 -18 -12 -15 -12 -16 6 -11 11 3 26 -1 33 -9 16
-16 12 -16 -68 3 -203 47 -423 175 -584 339 -91 93 -133 151 -193 265 -85 166
-112 265 -114 425 0 94 -11 79 -28 -42 -19 -130 10 -286 75 -416 59 -116 219
-315 314 -390 93 -75 235 -164 340 -215 l25 -12 -27 5 c-22 4 -26 2 -22 -10 4
-8 10 -15 15 -15 5 0 9 -7 9 -16 0 -15 -2 -15 -24 -1 -30 20 -36 14 -29 -29 4
-22 2 -34 -6 -34 -6 0 -11 5 -11 10 0 6 -7 10 -16 10 -11 0 -14 -6 -9 -20 4
-11 2 -20 -4 -20 -6 0 -11 5 -11 10 0 16 -27 11 -34 -6 -3 -9 -13 -14 -21 -10
-8 3 -17 1 -20 -3 -3 -5 -14 -7 -25 -4 -13 3 -26 -2 -37 -16 -14 -16 -34 -22
-83 -27 -36 -3 -69 -10 -74 -15 -6 -5 -24 -9 -42 -9 -23 0 -36 -7 -48 -25 -17
-26 -51 -33 -59 -12 -10 24 -26 -15 -16 -40 6 -18 5 -23 -6 -23 -8 0 -15 -4
-15 -10 0 -5 -13 -8 -29 -7 -32 2 -32 17 0 17 11 0 17 5 14 10 -4 7 -12 7 -25
0 -10 -5 -25 -10 -33 -10 -15 0 -201 184 -242 240 -43 57 -135 202 -159 250
-37 71 -74 189 -85 268 -10 80 -6 214 11 277 12 50 68 125 173 233 99 104 180
210 223 296 18 36 39 69 45 73 15 10 57 86 57 104 0 7 -35 -22 -77 -64 -107
-105 -192 -162 -414 -277 -285 -148 -460 -209 -768 -270 -80 -16 -142 -20
-284 -20 -272 0 -384 18 -512 81 l-60 29 45 -6 c247 -31 278 -32 535 -23 286
11 383 25 560 84 269 90 571 247 789 410 174 130 246 187 274 219 34 39 112
151 112 162 0 3 11 19 24 35 76 90 210 424 248 614 33 166 31 404 -5 580 -14
72 -28 146 -32 165 l-5 35 51 -51 c46 -46 52 -58 64 -120z m1075 -58 c0 -3 -4
-8 -10 -11 -5 -3 -10 -1 -10 4 0 6 5 11 10 11 6 0 10 -2 10 -4z m-214 -232
c-4 -9 -9 -15 -11 -12 -3 3 -3 13 1 22 4 9 9 15 11 12 3 -3 3 -13 -1 -22z
m-5505 -116 c11 -21 11 -22 -4 -9 -10 7 -17 17 -17 22 0 15 9 10 21 -13z
m5223 -127 c3 -5 -1 -14 -9 -21 -11 -9 -14 -8 -12 9 1 22 12 28 21 12z m-34
-11 c0 -5 -4 -10 -10 -10 -5 0 -10 5 -10 10 0 6 5 10 10 10 6 0 10 -4 10 -10z
m-80 -34 c0 -2 -7 -7 -16 -10 -8 -3 -12 -2 -9 4 6 10 25 14 25 6z m-5563 -108
c-3 -8 -6 -5 -6 6 -1 11 2 17 5 13 3 -3 4 -12 1 -19z m5447 -22 c-6 -15 -24
-23 -24 -11 0 8 24 34 28 30 1 -1 0 -10 -4 -19z m-5396 -109 c43 -107 133
-255 203 -332 60 -67 191 -190 244 -230 79 -59 238 -140 350 -177 180 -59 185
-60 729 -108 88 -8 122 -16 177 -41 38 -18 74 -38 80 -46 9 -11 8 -12 -5 -7
-9 3 -22 2 -29 -4 -16 -13 -57 -8 -160 22 -51 15 -137 29 -214 36 -345 29
-485 54 -635 114 -94 38 -241 119 -307 170 -224 174 -389 395 -453 606 -10 36
-21 72 -24 80 -15 45 17 -16 44 -83z m7062 29 c0 -3 -4 -8 -10 -11 -5 -3 -10
-1 -10 4 0 6 5 11 10 11 6 0 10 -2 10 -4z m-5589 -20 c-7 -8 -46 -31 -89 -51
-42 -20 -85 -41 -94 -46 -12 -6 -18 -6 -18 1 0 6 15 18 33 26 17 8 39 18 47
23 23 13 123 61 128 61 3 0 -1 -6 -7 -14z m947 -42 c6 3 13 2 17 -4 7 -11
-124 -14 -162 -4 -38 10 -17 21 43 23 32 0 59 3 62 6 3 3 10 -3 17 -12 7 -9
17 -13 23 -9z m-193 -67 c36 -19 31 -20 -35 -6 -27 6 -50 15 -50 20 0 5 -7 9
-15 9 -8 0 -15 4 -15 10 0 11 72 -9 115 -33z m-927 -20 c6 3 12 0 12 -6 0 -13
-56 -15 -64 -2 -9 13 5 21 23 12 9 -5 22 -6 29 -4z m1666 -36 c-2 -3 -12 3
-22 13 -16 17 -16 18 5 5 12 -7 20 -15 17 -18z m-1174 9 c13 -9 13 -10 0 -10
-8 0 -22 5 -30 10 -13 9 -13 10 0 10 8 0 22 -5 30 -10z m5210 -24 c0 -2 -7 -6
-15 -10 -8 -3 -15 -1 -15 4 0 6 7 10 15 10 8 0 15 -2 15 -4z m51 -51 c-9 -30
-9 -30 -10 10 -1 25 2 36 9 29 6 -6 6 -21 1 -39z m-4281 -55 c0 -5 -2 -10 -4
-10 -3 0 -8 5 -11 10 -3 6 -1 10 4 10 6 0 11 -4 11 -10z m-733 -60 c89 -12
183 -39 253 -75 104 -53 179 -127 149 -146 -8 -5 -20 -7 -26 -4 -7 2 -13 -2
-13 -10 0 -8 8 -15 18 -15 16 -1 16 -1 0 -11 -10 -5 -15 -16 -11 -25 4 -12 1
-15 -12 -13 -23 5 -32 29 -11 29 9 0 16 5 16 11 0 6 -7 8 -16 5 -9 -3 -20 -6
-26 -6 -6 0 -8 -9 -5 -20 6 -22 -17 -28 -29 -9 -4 7 -21 9 -44 5 -29 -4 -39
-2 -44 10 -4 10 -13 13 -26 9 -13 -4 -20 -2 -20 7 -1 7 -15 22 -33 33 -18 11
-32 27 -33 35 -2 29 -4 31 -19 16 -13 -13 -21 -13 -62 -1 -25 8 -49 14 -52 13
-3 0 -9 1 -13 2 -5 1 -14 3 -20 4 -7 1 -12 9 -12 19 1 9 -2 17 -7 17 -5 0 -9
-7 -9 -15 0 -8 -4 -15 -10 -15 -5 0 -10 5 -10 10 0 7 -13 8 -34 5 -20 -4 -36
-2 -40 4 -4 6 -14 11 -22 11 -8 0 -12 -4 -9 -10 3 -6 -5 -10 -18 -10 -14 0
-28 7 -31 16 -5 13 -15 15 -46 11 -24 -3 -40 -1 -40 5 0 7 -16 9 -41 5 -33 -4
-39 -3 -35 9 3 8 2 13 -3 10 -4 -3 -17 3 -29 14 -20 19 -21 19 -27 1 -7 -22
-32 -35 -40 -21 -4 6 -25 10 -48 11 l-42 1 32 11 c18 7 38 18 45 25 10 10 14
8 24 -9 6 -12 14 -17 17 -12 4 6 -2 19 -12 29 -17 19 -15 19 78 30 68 7 98 7
103 0 5 -8 8 -7 8 1 0 21 182 23 337 3z m4990 -17 c-3 -10 -5 -4 -5 12 0 17 2
24 5 18 2 -7 2 -21 0 -30z m-5557 -3 c0 -5 -15 -9 -32 -9 l-33 1 30 8 c17 4
31 8 33 9 1 0 2 -3 2 -9z m-83 -6 c-3 -3 -12 -4 -19 -1 -8 3 -5 6 6 6 11 1 17
-2 13 -5z m-74 -11 c-7 -2 -21 -2 -30 0 -10 3 -4 5 12 5 17 0 24 -2 18 -5z
m92 -13 c3 -5 -1 -10 -10 -10 -9 0 -13 5 -10 10 3 6 8 10 10 10 2 0 7 -4 10
-10z m5502 -52 c-3 -7 -5 -2 -5 12 0 14 2 19 5 13 2 -7 2 -19 0 -25z m-4814
-123 c-3 -9 -8 -14 -10 -11 -3 3 -2 9 2 15 9 16 15 13 8 -4z m1303 -92 c-6 -6
-31 42 -40 77 -4 14 5 3 19 -23 15 -27 24 -51 21 -54z m4514 24 c0 -7 -7 -22
-16 -33 -14 -18 -15 -18 -4 4 6 12 8 22 5 22 -4 0 -3 5 0 10 9 14 15 13 15 -3z
m-22 -69 c-2 -6 -10 -14 -16 -16 -7 -2 -10 2 -6 12 7 18 28 22 22 4z m-4449
-26 c24 -45 52 -177 62 -297 12 -143 5 -185 -30 -185 -11 0 -23 -4 -26 -10 -3
-5 -12 -10 -20 -10 -11 0 -11 8 1 47 14 45 20 83 31 188 4 45 -16 206 -33 263
-8 27 1 29 15 4z m-1120 -76 c-2 -2 -40 -16 -84 -31 -44 -14 -157 -64 -251
-110 -202 -100 -324 -186 -364 -258 -28 -51 -56 -84 -65 -75 -13 13 34 106 79
155 79 87 309 229 466 287 56 21 235 47 219 32z m4346 -206 c-3 -5 -16 -10
-28 -10 -18 0 -19 2 -7 10 20 13 43 13 35 0z m-4744 -101 c-11 -41 -22 -104
-25 -141 -5 -73 -16 -102 -42 -112 -23 -9 -28 -2 -15 22 6 11 17 68 26 126 8
59 20 117 26 129 14 27 41 58 46 53 2 -2 -5 -37 -16 -77z m2231 3 c-7 -2 -10
-7 -7 -12 6 -9 -30 -34 -65 -45 -25 -7 -25 -7 4 24 17 17 36 31 43 31 7 0 13
5 13 11 0 5 5 7 12 3 9 -6 9 -9 0 -12z m-202 -128 c0 -23 -160 -49 -167 -27
-6 16 25 23 75 19 23 -2 45 1 48 5 6 10 44 13 44 3z m-2576 -171 c-13 -20 -39
-67 -57 -104 -17 -37 -35 -68 -39 -68 -18 -2 53 143 90 182 35 36 36 34 6 -10z
m2586 -110 c-18 -62 -24 -251 -11 -340 13 -89 59 -209 114 -300 37 -59 204
-275 219 -281 4 -2 8 -11 8 -20 -1 -15 -3 -14 -15 2 -8 11 -18 16 -22 12 -10
-10 28 -38 43 -32 9 3 9 -3 1 -23 l-10 -28 -25 28 c-13 16 -28 29 -33 29 -17
0 -9 -25 16 -52 36 -39 31 -57 -6 -22 l-32 29 5 -27 c3 -16 1 -28 -3 -28 -5 0
-9 4 -9 8 0 5 -13 7 -30 4 -25 -3 -30 -9 -30 -31 -1 -25 -1 -26 -17 -6 -15 20
-15 20 -10 -3 3 -12 1 -20 -4 -16 -5 3 -9 14 -9 25 0 23 -26 25 -54 4 -31 -23
-47 -19 -40 10 5 21 3 25 -15 25 -22 0 -28 -14 -11 -25 15 -9 2 -25 -15 -19
-7 3 -15 15 -17 27 -2 16 -10 22 -28 22 -14 0 -29 6 -33 13 -4 6 -17 12 -28
12 -10 0 -33 14 -51 30 -17 17 -37 30 -44 30 -8 0 -14 11 -14 25 0 14 -4 25
-9 25 -11 0 -46 96 -77 215 l-24 90 6 -70 c7 -85 20 -150 39 -190 28 -62 55
-141 55 -162 0 -14 6 -23 15 -23 8 0 15 -4 15 -9 0 -5 -8 -8 -17 -7 -12 1 -19
-7 -21 -24 -2 -14 -8 -29 -14 -35 -7 -7 -9 -2 -4 17 3 15 2 30 -4 33 -5 3 -10
-2 -10 -12 0 -16 -12 -18 -103 -21 -62 -3 -105 -8 -110 -15 -5 -7 -6 -1 -2 13
l6 25 -20 -24 -21 -23 0 22 c0 23 0 23 -21 4 l-21 -19 7 34 c6 28 5 33 -8 28
-11 -4 -22 6 -36 36 -31 64 -45 142 -45 252 0 112 17 185 71 305 46 101 67
121 496 462 77 62 87 60 67 -9z m-1623 41 c-3 -3 -12 -4 -19 -1 -8 3 -5 6 6 6
11 1 17 -2 13 -5z m84 -45 c69 -44 75 -53 43 -74 -24 -16 -26 -16 -21 -1 4 9
2 16 -4 16 -6 0 -8 9 -4 21 5 15 4 19 -4 14 -6 -3 -27 7 -47 24 -45 40 -25 40
37 0z m299 -3 c0 -2 -21 -16 -46 -32 -25 -16 -59 -47 -75 -68 -18 -25 -29 -34
-29 -23 0 23 57 85 99 107 35 19 51 24 51 16z m-325 -64 c-6 -7 -35 18 -35 31
0 5 9 2 20 -8 11 -10 18 -20 15 -23z m854 -32 c-8 -4 -34 -10 -59 -14 l-45 -6
35 14 c19 7 41 11 49 8 9 -3 12 -1 7 6 -5 8 -2 10 10 5 13 -5 13 -7 3 -13z
m-2003 -100 c-8 -57 -14 -79 -15 -56 -1 43 20 177 26 161 1 -5 -3 -53 -11
-105z m4472 -157 c16 -4 20 -8 12 -13 -15 -9 -50 -1 -50 11 0 11 7 11 38 2z
m-2363 -110 c-3 -15 -19 -54 -35 -87 -15 -34 -35 -85 -44 -115 -21 -70 -21
-219 0 -317 8 -42 13 -79 9 -82 -3 -3 -8 4 -12 16 -7 27 -23 29 -23 2 0 -24
-16 -26 -28 -4 -6 11 -12 13 -16 6 -4 -6 -14 -8 -24 -5 -13 4 -13 2 3 -10 17
-13 18 -18 6 -29 -10 -9 -12 -9 -7 0 5 8 -1 12 -20 12 -22 0 -25 2 -14 15 10
12 10 15 -3 15 -9 0 -21 -9 -27 -20 -9 -17 -17 -20 -47 -14 -26 5 -34 4 -29
-5 8 -13 1 -13 -42 -5 -19 4 -34 15 -41 32 -10 20 -14 22 -24 12 -9 -10 -9
-14 1 -17 14 -6 16 -33 2 -33 -5 0 -10 7 -10 15 0 8 -5 15 -11 15 -6 0 -9 12
-6 28 2 15 2 22 0 16 -2 -5 -20 -11 -40 -11 -25 -1 -32 2 -22 8 10 6 7 9 -12
9 -17 0 -28 6 -31 18 -7 25 17 191 32 223 13 29 107 92 301 204 74 42 152 90
173 106 22 16 42 29 44 29 2 0 1 -12 -3 -27z m2102 -199 c-3 -3 -12 -4 -19 -1
-8 3 -5 6 6 6 11 1 17 -2 13 -5z m1368 -94 c-16 -16 -31 -27 -34 -24 -5 5 48
54 58 54 3 0 -8 -13 -24 -30z m-4095 -30 c0 -5 -5 -10 -11 -10 -5 0 -7 5 -4
10 3 6 8 10 11 10 2 0 4 -4 4 -10z m-32 -24 c3 -15 0 -16 -16 -7 -14 7 -49 5
-126 -8 -59 -9 -109 -14 -111 -10 -4 6 221 48 240 44 6 -1 12 -10 13 -19z m59
2 c-3 -8 -6 -5 -6 6 -1 11 2 17 5 13 3 -3 4 -12 1 -19z m-27 -26 c0 -11 -22
-32 -32 -32 -5 0 -4 9 2 20 11 20 30 28 30 12z m-120 -6 c0 -2 -7 -7 -16 -10
-8 -3 -12 -2 -9 4 6 10 25 14 25 6z m156 -23 c-10 -10 -19 5 -10 18 6 11 8 11
12 0 2 -7 1 -15 -2 -18z m-263 -10 c-7 -2 -19 -2 -25 0 -7 3 -2 5 12 5 14 0
19 -2 13 -5z m112 0 c-11 -3 -25 -9 -31 -14 -6 -5 -14 -6 -17 -2 -16 15 -5 23
31 22 21 -1 29 -3 17 -6z m15 -33 c0 -5 -4 -10 -10 -10 -5 0 -10 5 -10 10 0 6
5 10 10 10 6 0 10 -4 10 -10z m110 -11 c0 -14 -5 -19 -15 -16 -8 4 -17 2 -20
-2 -6 -10 -43 -3 -51 10 -3 5 9 7 26 5 20 -2 33 1 37 10 8 21 23 17 23 -7z
m1037 -76 c-3 -10 -5 -4 -5 12 0 17 2 24 5 18 2 -7 2 -21 0 -30z m-926 -53 c5
0 9 -4 9 -10 0 -14 -13 -12 -36 6 -17 14 -17 15 -1 10 10 -3 23 -6 28 -6z
m1239 -30 c0 -5 -7 -10 -15 -10 -8 0 -15 5 -15 10 0 6 7 10 15 10 8 0 15 -4
15 -10z m-777 -26 c4 -23 3 -24 -10 -11 -9 8 -12 20 -9 26 10 16 13 14 19 -15z
m-47 -12 c-10 -2 -22 0 -28 6 -6 6 0 7 19 4 21 -5 23 -7 9 -10z m-146 -2 c0
-5 -4 -10 -10 -10 -5 0 -10 5 -10 10 0 6 5 10 10 10 6 0 10 -4 10 -10z m220
-55 c0 -5 -5 -3 -10 5 -5 8 -10 20 -10 25 0 6 5 3 10 -5 5 -8 10 -19 10 -25z"/>
<path d="M4966 9581 c-4 -5 3 -7 14 -4 23 6 26 13 6 13 -8 0 -17 -4 -20 -9z"/>
<path d="M5010 9570 c0 -5 5 -10 10 -10 6 0 10 5 10 10 0 6 -4 10 -10 10 -5 0
-10 -4 -10 -10z"/>
<path d="M4910 9509 c0 -5 5 -7 10 -4 6 3 10 8 10 11 0 2 -4 4 -10 4 -5 0 -10
-5 -10 -11z"/>
<path d="M4585 9250 c4 -6 11 -8 16 -5 14 9 11 15 -7 15 -8 0 -12 -5 -9 -10z"/>
<path d="M1351 8234 c0 -11 3 -14 6 -6 3 7 2 16 -1 19 -3 4 -6 -2 -5 -13z"/>
<path d="M1332 8150 c0 -14 2 -19 5 -12 2 6 2 18 0 25 -3 6 -5 1 -5 -13z"/>
<path d="M7870 8222 c0 -16 13 -20 35 -11 11 4 15 8 8 8 -6 1 -18 4 -27 7 -9
3 -16 1 -16 -4z"/>
<path d="M7800 8094 c0 -8 5 -12 10 -9 6 4 8 11 5 16 -9 14 -15 11 -15 -7z"/>
<path d="M7835 8060 c3 -5 8 -10 11 -10 2 0 4 5 4 10 0 6 -5 10 -11 10 -5 0
-7 -4 -4 -10z"/>
<path d="M7886 8052 c-2 -4 4 -9 15 -9 10 -1 19 2 19 8 0 11 -27 12 -34 1z"/>
<path d="M1671 7114 c-17 -27 -34 -58 -37 -70 -14 -55 97 -204 152 -204 41 0
59 16 83 72 23 54 21 97 -7 161 -24 54 -57 78 -115 84 -43 5 -44 4 -76 -43z"/>
<path d="M2813 7135 c-119 -32 -180 -90 -190 -179 -5 -38 -2 -48 20 -70 16
-16 37 -26 55 -26 15 0 51 -11 79 -25 49 -23 54 -24 98 -10 101 30 175 111
175 192 0 50 -25 84 -83 112 -50 24 -81 25 -154 6z m-14 -57 c12 -31 4 -36
-46 -30 -38 4 -41 6 -33 22 9 16 20 21 63 29 4 0 12 -9 16 -21z"/>
<path d="M1615 6480 c10 -11 20 -20 23 -20 3 0 -3 9 -13 20 -10 11 -20 20 -23
20 -3 0 3 -9 13 -20z"/>
<path d="M1700 6420 c0 -4 9 -10 20 -13 11 -3 20 -2 20 3 0 4 -9 10 -20 13
-11 3 -20 2 -20 -3z"/>
<path d="M5881 6224 c0 -11 3 -14 6 -6 3 7 2 16 -1 19 -3 4 -6 -2 -5 -13z"/>
<path d="M5700 6130 c0 -5 5 -10 10 -10 6 0 10 5 10 10 0 6 -4 10 -10 10 -5 0
-10 -4 -10 -10z"/>
<path d="M5608 6073 c7 -3 16 -2 19 1 4 3 -2 6 -13 5 -11 0 -14 -3 -6 -6z"/>
<path d="M7887 7597 c-13 -20 -13 -25 0 -42 13 -19 14 -18 8 8 -6 23 -4 27 14
27 14 0 19 5 15 15 -8 21 -19 19 -37 -8z"/>
<path d="M7866 7535 c4 -8 8 -15 10 -15 2 0 4 7 4 15 0 8 -4 15 -10 15 -5 0
-7 -7 -4 -15z"/>
<path d="M7820 7501 c0 -10 24 -21 43 -21 7 0 3 7 -7 15 -22 17 -36 19 -36 6z"/>
<path d="M7402 4685 c0 -16 2 -22 5 -12 2 9 2 23 0 30 -3 6 -5 -1 -5 -18z"/>
<path d="M7250 4645 c0 -8 2 -15 4 -15 2 0 6 7 10 15 3 8 1 15 -4 15 -6 0 -10
-7 -10 -15z"/>
<path d="M7328 4639 c-21 -12 -24 -33 -4 -26 8 3 16 1 19 -6 2 -6 6 -7 9 -2 3
6 3 18 -1 27 -4 13 -10 14 -23 7z"/>
<path d="M6319 4513 c-13 -16 -12 -17 4 -4 16 13 21 21 13 21 -2 0 -10 -8 -17
-17z"/>
<path d="M5890 4089 c0 -5 5 -7 10 -4 6 3 10 8 10 11 0 2 -4 4 -10 4 -5 0 -10
-5 -10 -11z"/>
<path d="M5737 4039 c-4 -16 -3 -18 9 -8 7 6 11 15 8 20 -8 13 -11 11 -17 -12z"/>
<path d="M5805 4040 c-3 -5 -1 -10 4 -10 6 0 11 5 11 10 0 6 -2 10 -4 10 -3 0
-8 -4 -11 -10z"/>
<path d="M5765 4029 c-4 -6 -5 -12 -2 -15 2 -3 7 2 10 11 7 17 1 20 -8 4z"/>
<path d="M5695 3950 c-3 -5 -1 -10 4 -10 6 0 11 5 11 10 0 6 -2 10 -4 10 -3 0
-8 -4 -11 -10z"/>
<path d="M5660 3934 c0 -8 5 -12 10 -9 6 4 8 11 5 16 -9 14 -15 11 -15 -7z"/>
<path d="M7165 3610 c-3 -5 -1 -10 4 -10 6 0 11 5 11 10 0 6 -2 10 -4 10 -3 0
-8 -4 -11 -10z"/>
<path d="M5370 3540 c0 -13 66 -119 89 -142 9 -9 45 -46 79 -83 41 -43 69 -64
79 -61 8 3 19 6 24 6 5 0 9 5 9 10 0 6 -4 10 -9 10 -13 0 -144 137 -189 197
-22 30 -43 48 -51 45 -10 -3 -12 0 -8 12 4 10 1 16 -8 16 -8 0 -15 -5 -15 -10z"/>
<path d="M5620 3240 c0 -5 10 -15 23 -21 12 -7 24 -15 27 -19 19 -24 154 -108
221 -136 87 -36 99 -40 99 -24 0 6 -5 10 -10 10 -6 0 -29 14 -52 30 -26 19
-48 28 -60 24 -12 -3 -18 0 -18 9 0 10 -8 13 -25 9 -19 -3 -24 -1 -20 10 7 18
-64 68 -97 69 -13 0 -17 3 -10 6 22 9 13 25 -12 19 -15 -4 -28 0 -36 9 -14 17
-30 20 -30 5z"/>
<path d="M5655 3240 c3 -5 8 -10 11 -10 2 0 4 5 4 10 0 6 -5 10 -11 10 -5 0
-7 -4 -4 -10z"/>
<path d="M6014 3015 c11 -8 22 -12 25 -9 6 6 -19 24 -34 24 -5 -1 -1 -7 9 -15z"/>
<path d="M1865 3500 c-3 -5 -1 -10 4 -10 6 0 11 5 11 10 0 6 -2 10 -4 10 -3 0
-8 -4 -11 -10z"/>
<path d="M1905 3499 c-4 -6 -5 -12 -2 -15 2 -3 7 2 10 11 7 17 1 20 -8 4z"/>
<path d="M1780 3487 c0 -5 7 -7 15 -3 8 3 19 -2 24 -12 9 -15 10 -14 8 5 -1
17 -7 22 -24 21 -13 -2 -23 -6 -23 -11z"/>
<path d="M1850 3464 c0 -8 5 -12 10 -9 6 3 10 10 10 16 0 5 -4 9 -10 9 -5 0
-10 -7 -10 -16z"/>
<path d="M1735 3460 c3 -5 8 -10 11 -10 2 0 4 5 4 10 0 6 -5 10 -11 10 -5 0
-7 -4 -4 -10z"/>
<path d="M1880 3460 c0 -5 5 -10 10 -10 6 0 10 5 10 10 0 6 -4 10 -10 10 -5 0
-10 -4 -10 -10z"/>
<path d="M1980 3429 c0 -5 5 -7 10 -4 6 3 10 8 10 11 0 2 -4 4 -10 4 -5 0 -10
-5 -10 -11z"/>
<path d="M2220 3390 c0 -5 5 -10 11 -10 5 0 7 5 4 10 -3 6 -8 10 -11 10 -2 0
-4 -4 -4 -10z"/>
<path d="M4455 1410 c3 -5 8 -10 11 -10 2 0 4 5 4 10 0 6 -5 10 -11 10 -5 0
-7 -4 -4 -10z"/>
<path d="M4382 1330 c0 -14 2 -19 5 -12 2 6 2 18 0 25 -3 6 -5 1 -5 -13z"/>
<path d="M3085 9777 c-27 -12 -59 -28 -70 -35 -19 -12 -18 -13 5 -6 30 8 130
54 130 60 0 8 -15 3 -65 -19z"/>
<path d="M2965 9720 c-16 -7 -17 -9 -3 -9 9 -1 20 4 23 9 7 11 7 11 -20 0z"/>
<path d="M2861 9669 c-13 -5 -21 -12 -18 -15 3 -3 18 1 34 10 31 17 21 20 -16
5z"/>
<path d="M2705 9582 c-70 -40 -105 -65 -105 -73 0 -7 128 68 149 87 12 11 -18
1 -44 -14z"/>
<path d="M1894 9276 c-31 -14 -104 -91 -104 -110 0 -6 14 5 30 24 16 19 30 38
30 42 0 11 61 41 100 49 34 7 34 7 5 7 -16 1 -44 -5 -61 -12z"/>
<path d="M8958 8213 c18 -2 45 -2 60 0 15 2 0 4 -33 4 -33 0 -45 -2 -27 -4z"/>
<path d="M9112 8155 c3 -3 55 -7 116 -8 62 -2 106 0 100 5 -14 8 -225 11 -216
3z"/>
<path d="M9469 8129 c-9 -17 -8 -23 2 -30 17 -10 23 -11 72 -3 43 8 48 26 12
42 -40 18 -73 15 -86 -9z"/>
<path d="M8955 8123 c-65 -10 -104 -21 -113 -32 -7 -9 -11 -10 -7 -3 4 8 -1
12 -14 12 -12 0 -21 -4 -21 -10 0 -5 -15 -10 -34 -10 -19 0 -38 -4 -41 -10 -8
-14 8 -13 182 10 139 18 193 32 193 52 0 10 -25 9 -145 -9z"/>
<path d="M8778 7228 c10 -13 10 -17 0 -21 -9 -4 -7 -6 4 -6 27 -1 31 17 6 30
-20 11 -22 11 -10 -3z"/>
<path d="M8125 6969 c-4 -13 -1 -27 9 -38 9 -10 16 -23 16 -29 0 -7 5 -12 10
-12 16 0 12 22 -6 35 -9 6 -16 24 -16 38 0 32 -4 34 -13 6z"/>
<path d="M8420 5993 c0 -5 5 -15 10 -23 8 -12 10 -11 10 8 0 12 -4 22 -10 22
-5 0 -10 -3 -10 -7z"/>
<path d="M8990 5730 c-8 -5 -10 -10 -5 -10 6 0 17 5 25 10 8 5 11 10 5 10 -5
0 -17 -5 -25 -10z"/>
<path d="M880 5605 c-24 -24 -42 -46 -39 -49 2 -2 23 18 47 45 54 61 50 63 -8
4z"/>
<path d="M809 5523 c-13 -16 -12 -17 4 -4 16 13 21 21 13 21 -2 0 -10 -8 -17
-17z"/>
<path d="M9871 4249 c-115 -60 -199 -109 -166 -97 56 20 85 33 85 40 0 4 6 5
14 2 7 -3 20 1 28 9 8 8 25 18 38 22 50 15 173 96 144 95 -5 -1 -69 -32 -143
-71z"/>
<path d="M8421 4224 c0 -11 3 -14 6 -6 3 7 2 16 -1 19 -3 4 -6 -2 -5 -13z"/>
<path d="M710 4192 c0 -5 15 -19 33 -32 l32 -24 -25 31 c-25 31 -40 41 -40 25z"/>
<path d="M790 4115 c7 -9 15 -13 17 -11 7 7 -7 26 -19 26 -6 0 -6 -6 2 -15z"/>
<path d="M1910 3989 c-25 -4 -66 -8 -92 -8 -31 -1 -48 -5 -48 -13 0 -15 91
-22 100 -9 8 13 50 23 50 13 0 -5 15 -4 34 2 19 6 32 14 30 18 -6 9 -11 9 -74
-3z"/>
<path d="M1600 3960 l-55 -7 50 -3 c28 -1 55 -1 60 0 6 2 26 6 45 10 l35 8
-40 -1 c-22 0 -65 -3 -95 -7z"/>
<path d="M8723 3782 c-41 -22 -38 -36 10 -39 20 -2 48 -10 61 -18 l24 -16 0
45 c0 45 0 46 -31 46 -18 -1 -46 -9 -64 -18z"/>
<path d="M8376 3575 c-19 -21 -47 -87 -90 -215 -34 -102 -81 -228 -103 -280
-23 -52 -56 -129 -73 -170 -18 -41 -42 -91 -54 -110 -12 -19 -27 -53 -35 -75
-34 -104 -75 -205 -83 -205 -5 0 -6 -4 -3 -10 19 -30 75 8 75 51 0 35 57 194
86 240 28 46 51 84 106 183 21 38 42 74 47 80 5 6 19 43 31 81 13 39 35 102
50 140 32 81 84 288 77 307 -3 9 -13 3 -31 -17z"/>
<path d="M7786 2249 c-28 -19 -83 -77 -134 -142 -233 -294 -435 -528 -568
-657 -330 -320 -565 -502 -798 -618 -81 -39 -106 -56 -95 -63 28 -18 66 -8
139 36 169 102 230 142 340 223 185 137 196 146 290 233 50 46 108 99 130 118
22 18 38 37 35 41 -3 5 40 47 94 94 55 48 107 96 115 108 8 11 41 48 74 82 32
33 74 84 92 111 19 28 57 77 85 111 40 49 189 245 254 335 20 28 1 23 -53 -12z"/>
<path d="M7595 690 c-33 -5 -168 -11 -300 -14 -285 -5 -280 -5 -273 -11 14
-14 245 -26 508 -25 292 1 379 6 383 24 6 25 -209 42 -318 26z"/>
<path d="M6425 590 c19 -36 25 -37 52 -6 24 28 15 36 -38 36 l-30 0 16 -30z"/>
</g>
</svg>
